{
	"patcher" : 	{
		"fileversion" : 1,
		"appversion" : 		{
			"major" : 7,
			"minor" : 3,
			"revision" : 4,
			"architecture" : "x86",
			"modernui" : 1
		}
,
		"rect" : [ 61.0, 79.0, 1083.0, 670.0 ],
		"bglocked" : 0,
		"openinpresentation" : 0,
		"default_fontsize" : 12.0,
		"default_fontface" : 0,
		"default_fontname" : "Arial",
		"gridonopen" : 1,
		"gridsize" : [ 15.0, 15.0 ],
		"gridsnaponopen" : 1,
		"objectsnaponopen" : 1,
		"statusbarvisible" : 2,
		"toolbarvisible" : 1,
		"lefttoolbarpinned" : 0,
		"toptoolbarpinned" : 0,
		"righttoolbarpinned" : 0,
		"bottomtoolbarpinned" : 0,
		"toolbars_unpinned_last_save" : 0,
		"tallnewobj" : 0,
		"boxanimatetime" : 200,
		"enablehscroll" : 1,
		"enablevscroll" : 1,
		"devicewidth" : 0.0,
		"description" : "",
		"digest" : "",
		"tags" : "",
		"style" : "",
		"subpatcher_template" : "",
		"boxes" : [ 			{
				"box" : 				{
					"fontsize" : 10.0,
					"format" : 6,
					"id" : "obj-32",
					"maxclass" : "flonum",
					"maximum" : 40000.0,
					"minimum" : 0.0,
					"numinlets" : 1,
					"numoutlets" : 2,
					"outlettype" : [ "", "bang" ],
					"parameter_enable" : 0,
					"patching_rect" : [ 121.5, 155.0, 45.0, 20.0 ],
					"style" : ""
				}

			}
, 			{
				"box" : 				{
					"fontsize" : 10.0,
					"format" : 6,
					"id" : "obj-31",
					"maxclass" : "flonum",
					"maximum" : 40000.0,
					"minimum" : 0.0,
					"numinlets" : 1,
					"numoutlets" : 2,
					"outlettype" : [ "", "bang" ],
					"parameter_enable" : 0,
					"patching_rect" : [ 34.0, 155.0, 45.0, 20.0 ],
					"style" : ""
				}

			}
, 			{
				"box" : 				{
					"bgcolor" : [ 0.960784, 0.827451, 0.156863, 0.34 ],
					"fontface" : 1,
					"fontsize" : 12.0,
					"id" : "obj-99",
					"maxclass" : "comment",
					"numinlets" : 1,
					"numoutlets" : 0,
					"patching_rect" : [ 249.25, 50.0, 197.0, 20.0 ],
					"presentation" : 1,
					"presentation_rect" : [ 492.0, 8.0, 196.0, 20.0 ],
					"style" : "",
					"text" : "Tristan Louth-Robins 2014-2017"
				}

			}
, 			{
				"box" : 				{
					"bgcolor" : [ 0.960784, 0.827451, 0.156863, 0.34 ],
					"fontface" : 1,
					"fontsize" : 14.0,
					"id" : "obj-98",
					"maxclass" : "comment",
					"numinlets" : 1,
					"numoutlets" : 0,
					"patching_rect" : [ 249.25, 6.0, 291.0, 22.0 ],
					"presentation" : 1,
					"presentation_rect" : [ 9.0, 8.0, 291.499969, 22.0 ],
					"style" : "",
					"text" : "GOYDER'S LINE PERFORMANCE PATCH"
				}

			}
, 			{
				"box" : 				{
					"fontface" : 1,
					"fontsize" : 10.0,
					"id" : "obj-97",
					"maxclass" : "comment",
					"numinlets" : 1,
					"numoutlets" : 0,
					"patching_rect" : [ 51.75, 6.0, 62.0, 18.0 ],
					"presentation" : 1,
					"presentation_rect" : [ 77.0, 49.5, 45.0, 18.0 ],
					"style" : "",
					"text" : "START",
					"textcolor" : [ 0.0, 0.0, 0.0, 0.63 ]
				}

			}
, 			{
				"box" : 				{
					"fontface" : 1,
					"fontsize" : 10.0,
					"id" : "obj-94",
					"maxclass" : "comment",
					"numinlets" : 1,
					"numoutlets" : 0,
					"patching_rect" : [ 84.0, 50.0, 62.0, 18.0 ],
					"presentation" : 1,
					"presentation_rect" : [ 16.0, 49.5, 45.0, 18.0 ],
					"style" : "",
					"text" : "AUDIO",
					"textcolor" : [ 0.0, 0.0, 0.0, 0.63 ]
				}

			}
, 			{
				"box" : 				{
					"bgcolor" : [ 0.501961, 0.0, 0.0, 0.544332 ],
					"id" : "obj-91",
					"maxclass" : "dial",
					"needlecolor" : [ 0.0, 0.0, 0.0, 1.0 ],
					"numinlets" : 1,
					"numoutlets" : 1,
					"outlettype" : [ "float" ],
					"parameter_enable" : 0,
					"patching_rect" : [ 634.0, 697.0, 40.0, 40.0 ],
					"presentation" : 1,
					"presentation_rect" : [ 363.5, 75.5, 40.0, 40.0 ],
					"size" : 100.0,
					"style" : ""
				}

			}
, 			{
				"box" : 				{
					"bgcolor" : [ 0.501961, 0.0, 0.0, 0.544332 ],
					"id" : "obj-90",
					"maxclass" : "dial",
					"needlecolor" : [ 0.0, 0.0, 0.0, 1.0 ],
					"numinlets" : 1,
					"numoutlets" : 1,
					"outlettype" : [ "float" ],
					"parameter_enable" : 0,
					"patching_rect" : [ 519.0, 697.0, 40.0, 40.0 ],
					"presentation" : 1,
					"presentation_rect" : [ 312.499969, 76.0, 40.0, 40.0 ],
					"size" : 100.0,
					"style" : ""
				}

			}
, 			{
				"box" : 				{
					"fontface" : 1,
					"fontsize" : 10.0,
					"id" : "obj-89",
					"maxclass" : "comment",
					"numinlets" : 1,
					"numoutlets" : 0,
					"patching_rect" : [ 778.0, 319.0, 117.0, 18.0 ],
					"presentation" : 1,
					"presentation_rect" : [ 422.0, 50.0, 67.0, 18.0 ],
					"style" : "",
					"text" : "DURATION",
					"textcolor" : [ 0.0, 0.0, 0.0, 0.63 ]
				}

			}
, 			{
				"box" : 				{
					"fontsize" : 10.0,
					"id" : "obj-85",
					"maxclass" : "comment",
					"numinlets" : 1,
					"numoutlets" : 0,
					"patching_rect" : [ 778.0, 283.0, 92.0, 18.0 ],
					"presentation" : 1,
					"presentation_rect" : [ 422.0, 75.5, 53.0, 18.0 ],
					"style" : "",
					"text" : "DOMAIN",
					"textcolor" : [ 0.0, 0.0, 0.0, 0.63 ]
				}

			}
, 			{
				"box" : 				{
					"id" : "obj-82",
					"maxclass" : "newobj",
					"numinlets" : 2,
					"numoutlets" : 1,
					"outlettype" : [ "float" ],
					"patching_rect" : [ 474.0, 253.0, 35.0, 22.0 ],
					"style" : "",
					"text" : "* 0.1"
				}

			}
, 			{
				"box" : 				{
					"bgcolor" : [ 0.501961, 0.0, 0.0, 0.544332 ],
					"id" : "obj-78",
					"maxclass" : "dial",
					"needlecolor" : [ 0.0, 0.0, 0.0, 1.0 ],
					"numinlets" : 1,
					"numoutlets" : 1,
					"outlettype" : [ "float" ],
					"parameter_enable" : 0,
					"patching_rect" : [ 474.0, 199.0, 40.0, 40.0 ],
					"presentation" : 1,
					"presentation_rect" : [ 261.499969, 75.5, 40.0, 40.0 ],
					"size" : 100.0,
					"style" : ""
				}

			}
, 			{
				"box" : 				{
					"id" : "obj-77",
					"maxclass" : "message",
					"numinlets" : 2,
					"numoutlets" : 1,
					"outlettype" : [ "" ],
					"patching_rect" : [ 34.0, 605.0, 29.5, 22.0 ],
					"style" : "",
					"text" : "90"
				}

			}
, 			{
				"box" : 				{
					"id" : "obj-73",
					"maxclass" : "newobj",
					"numinlets" : 1,
					"numoutlets" : 1,
					"outlettype" : [ "bang" ],
					"patching_rect" : [ 34.0, 572.0, 60.0, 22.0 ],
					"style" : "",
					"text" : "loadbang"
				}

			}
, 			{
				"box" : 				{
					"id" : "obj-72",
					"maxclass" : "newobj",
					"numinlets" : 0,
					"numoutlets" : 1,
					"outlettype" : [ "" ],
					"patching_rect" : [ 170.75, 363.0, 33.0, 22.0 ],
					"style" : "",
					"text" : "r vol"
				}

			}
, 			{
				"box" : 				{
					"id" : "obj-63",
					"maxclass" : "newobj",
					"numinlets" : 1,
					"numoutlets" : 0,
					"patching_rect" : [ 34.0, 772.0, 35.0, 22.0 ],
					"style" : "",
					"text" : "s vol"
				}

			}
, 			{
				"box" : 				{
					"id" : "obj-51",
					"maxclass" : "newobj",
					"numinlets" : 2,
					"numoutlets" : 1,
					"outlettype" : [ "float" ],
					"patching_rect" : [ 34.0, 740.0, 42.0, 22.0 ],
					"style" : "",
					"text" : "* 0.01"
				}

			}
, 			{
				"box" : 				{
					"id" : "obj-39",
					"maxclass" : "number",
					"numinlets" : 1,
					"numoutlets" : 2,
					"outlettype" : [ "", "bang" ],
					"parameter_enable" : 0,
					"patching_rect" : [ 34.0, 712.0, 50.0, 22.0 ],
					"style" : ""
				}

			}
, 			{
				"box" : 				{
					"bgcolor" : [ 0.501961, 0.0, 0.0, 0.544332 ],
					"id" : "obj-20",
					"maxclass" : "dial",
					"needlecolor" : [ 0.0, 0.0, 0.0, 1.0 ],
					"numinlets" : 1,
					"numoutlets" : 1,
					"outlettype" : [ "float" ],
					"parameter_enable" : 0,
					"patching_rect" : [ 34.0, 659.0, 40.0, 40.0 ],
					"presentation" : 1,
					"presentation_rect" : [ 165.125, 74.5, 40.0, 40.0 ],
					"size" : 100.0,
					"style" : ""
				}

			}
, 			{
				"box" : 				{
					"color" : [ 0.960784, 0.827451, 0.156863, 1.0 ],
					"id" : "obj-168",
					"maxclass" : "newobj",
					"numinlets" : 1,
					"numoutlets" : 0,
					"patching_rect" : [ 1364.0, 811.0, 53.0, 22.0 ],
					"style" : "",
					"text" : "s filter-2"
				}

			}
, 			{
				"box" : 				{
					"id" : "obj-169",
					"maxclass" : "message",
					"numinlets" : 2,
					"numoutlets" : 1,
					"outlettype" : [ "" ],
					"patching_rect" : [ 1364.0, 635.0, 59.0, 22.0 ],
					"style" : "",
					"text" : "highpass"
				}

			}
, 			{
				"box" : 				{
					"fontface" : 0,
					"id" : "obj-170",
					"maxclass" : "filtergraph~",
					"nfilters" : 1,
					"numinlets" : 8,
					"numoutlets" : 7,
					"outlettype" : [ "list", "float", "float", "float", "float", "list", "int" ],
					"parameter_enable" : 0,
					"patching_rect" : [ 1364.0, 666.0, 256.0, 128.0 ],
					"setfilter" : [ 0, 2, 1, 0, 0, 52.271507, 1.003647, 0.763049, 0.0, 0.0, 0.0, 0.0, 0.0, 0.0 ],
					"style" : ""
				}

			}
, 			{
				"box" : 				{
					"color" : [ 0.952941, 0.564706, 0.098039, 1.0 ],
					"id" : "obj-163",
					"maxclass" : "newobj",
					"numinlets" : 1,
					"numoutlets" : 0,
					"patching_rect" : [ 934.0, 811.0, 53.0, 22.0 ],
					"style" : "",
					"text" : "s filter-1"
				}

			}
, 			{
				"box" : 				{
					"id" : "obj-164",
					"maxclass" : "message",
					"numinlets" : 2,
					"numoutlets" : 1,
					"outlettype" : [ "" ],
					"patching_rect" : [ 934.0, 635.0, 59.0, 22.0 ],
					"style" : "",
					"text" : "highpass"
				}

			}
, 			{
				"box" : 				{
					"fontface" : 0,
					"id" : "obj-165",
					"maxclass" : "filtergraph~",
					"nfilters" : 1,
					"numinlets" : 8,
					"numoutlets" : 7,
					"outlettype" : [ "list", "float", "float", "float", "float", "list", "int" ],
					"parameter_enable" : 0,
					"patching_rect" : [ 934.0, 666.0, 256.0, 128.0 ],
					"setfilter" : [ 0, 2, 1, 0, 0, 52.271507, 1.003647, 0.763049, 0.0, 0.0, 0.0, 0.0, 0.0, 0.0 ],
					"style" : ""
				}

			}
, 			{
				"box" : 				{
					"color" : [ 0.960784, 0.827451, 0.156863, 1.0 ],
					"id" : "obj-161",
					"maxclass" : "newobj",
					"numinlets" : 1,
					"numoutlets" : 0,
					"patching_rect" : [ 1498.666626, 628.0, 62.0, 22.0 ],
					"style" : "",
					"text" : "s signal-2"
				}

			}
, 			{
				"box" : 				{
					"color" : [ 0.952941, 0.564706, 0.098039, 1.0 ],
					"id" : "obj-162",
					"maxclass" : "newobj",
					"numinlets" : 1,
					"numoutlets" : 0,
					"patching_rect" : [ 1068.666626, 628.0, 62.0, 22.0 ],
					"style" : "",
					"text" : "s signal-1"
				}

			}
, 			{
				"box" : 				{
					"id" : "obj-160",
					"maxclass" : "newobj",
					"numinlets" : 5,
					"numoutlets" : 4,
					"outlettype" : [ "int", "", "", "int" ],
					"patching_rect" : [ 216.0, 1040.0, 61.0, 22.0 ],
					"style" : "",
					"text" : "counter"
				}

			}
, 			{
				"box" : 				{
					"id" : "obj-159",
					"maxclass" : "number",
					"numinlets" : 1,
					"numoutlets" : 2,
					"outlettype" : [ "", "bang" ],
					"parameter_enable" : 0,
					"patching_rect" : [ 356.0, 654.0, 50.0, 22.0 ],
					"style" : ""
				}

			}
, 			{
				"box" : 				{
					"fontsize" : 10.0,
					"id" : "obj-158",
					"maxclass" : "comment",
					"numinlets" : 1,
					"numoutlets" : 0,
					"patching_rect" : [ 778.0, 208.0, 92.0, 18.0 ],
					"presentation" : 1,
					"presentation_rect" : [ 517.0, 75.5, 102.0, 18.0 ],
					"style" : "",
					"text" : "PERFORMANCE",
					"textcolor" : [ 0.0, 0.0, 0.0, 0.63 ]
				}

			}
, 			{
				"box" : 				{
					"bgcolor" : [ 0.290196, 0.309804, 0.301961, 0.67 ],
					"fontname" : "Andale Mono",
					"id" : "obj-153",
					"maxclass" : "number",
					"numinlets" : 1,
					"numoutlets" : 2,
					"outlettype" : [ "", "bang" ],
					"parameter_enable" : 0,
					"patching_rect" : [ 815.0, 235.0, 54.0, 22.0 ],
					"presentation" : 1,
					"presentation_rect" : [ 553.0, 93.5, 46.0, 22.0 ],
					"style" : "",
					"textcolor" : [ 0.921569, 0.917647, 0.933333, 0.73 ]
				}

			}
, 			{
				"box" : 				{
					"bgcolor" : [ 0.290196, 0.309804, 0.301961, 0.67 ],
					"fontname" : "Andale Mono",
					"id" : "obj-154",
					"maxclass" : "number",
					"numinlets" : 1,
					"numoutlets" : 2,
					"outlettype" : [ "", "bang" ],
					"parameter_enable" : 0,
					"patching_rect" : [ 762.0, 235.0, 54.0, 22.0 ],
					"presentation" : 1,
					"presentation_rect" : [ 518.0, 93.5, 44.0, 22.0 ],
					"style" : "",
					"textcolor" : [ 0.921569, 0.917647, 0.933333, 0.73 ]
				}

			}
, 			{
				"box" : 				{
					"id" : "obj-155",
					"maxclass" : "newobj",
					"numinlets" : 2,
					"numoutlets" : 1,
					"outlettype" : [ "int" ],
					"patching_rect" : [ 815.0, 165.0, 38.0, 22.0 ],
					"style" : "",
					"text" : "% 60"
				}

			}
, 			{
				"box" : 				{
					"id" : "obj-156",
					"maxclass" : "newobj",
					"numinlets" : 2,
					"numoutlets" : 1,
					"outlettype" : [ "int" ],
					"patching_rect" : [ 762.0, 165.0, 31.0, 22.0 ],
					"style" : "",
					"text" : "/ 60"
				}

			}
, 			{
				"box" : 				{
					"color" : [ 0.317647, 0.654902, 0.976471, 1.0 ],
					"id" : "obj-152",
					"maxclass" : "newobj",
					"numinlets" : 0,
					"numoutlets" : 1,
					"outlettype" : [ "" ],
					"patching_rect" : [ 762.0, 129.0, 85.0, 22.0 ],
					"style" : "",
					"text" : "r metro_count"
				}

			}
, 			{
				"box" : 				{
					"color" : [ 0.317647, 0.654902, 0.976471, 1.0 ],
					"id" : "obj-151",
					"maxclass" : "newobj",
					"numinlets" : 1,
					"numoutlets" : 0,
					"patching_rect" : [ 216.0, 1086.0, 87.0, 22.0 ],
					"style" : "",
					"text" : "s metro_count"
				}

			}
, 			{
				"box" : 				{
					"id" : "obj-150",
					"maxclass" : "newobj",
					"numinlets" : 2,
					"numoutlets" : 1,
					"outlettype" : [ "int" ],
					"patching_rect" : [ 560.0, 381.0, 45.0, 22.0 ],
					"style" : "",
					"text" : "* 1000"
				}

			}
, 			{
				"box" : 				{
					"color" : [ 0.92549, 0.364706, 0.341176, 1.0 ],
					"id" : "obj-148",
					"maxclass" : "newobj",
					"numinlets" : 0,
					"numoutlets" : 1,
					"outlettype" : [ "" ],
					"patching_rect" : [ 372.0, 216.0, 58.0, 22.0 ],
					"style" : "",
					"text" : "r resume"
				}

			}
, 			{
				"box" : 				{
					"color" : [ 0.92549, 0.364706, 0.341176, 1.0 ],
					"id" : "obj-149",
					"maxclass" : "newobj",
					"numinlets" : 0,
					"numoutlets" : 1,
					"outlettype" : [ "" ],
					"patching_rect" : [ 279.0, 216.0, 63.0, 22.0 ],
					"style" : "",
					"text" : "r suspend"
				}

			}
, 			{
				"box" : 				{
					"id" : "obj-147",
					"maxclass" : "message",
					"numinlets" : 2,
					"numoutlets" : 1,
					"outlettype" : [ "" ],
					"patching_rect" : [ 397.25, 718.0, 29.5, 22.0 ],
					"style" : "",
					"text" : "1"
				}

			}
, 			{
				"box" : 				{
					"id" : "obj-146",
					"maxclass" : "number",
					"numinlets" : 1,
					"numoutlets" : 2,
					"outlettype" : [ "", "bang" ],
					"parameter_enable" : 0,
					"patching_rect" : [ 509.0, 880.0, 50.0, 22.0 ],
					"style" : ""
				}

			}
, 			{
				"box" : 				{
					"id" : "obj-145",
					"maxclass" : "number",
					"numinlets" : 1,
					"numoutlets" : 2,
					"outlettype" : [ "", "bang" ],
					"parameter_enable" : 0,
					"patching_rect" : [ 356.0, 880.0, 50.0, 22.0 ],
					"style" : ""
				}

			}
, 			{
				"box" : 				{
					"id" : "obj-144",
					"maxclass" : "message",
					"numinlets" : 2,
					"numoutlets" : 1,
					"outlettype" : [ "" ],
					"patching_rect" : [ 311.0, 981.0, 29.5, 22.0 ],
					"style" : "",
					"text" : "2"
				}

			}
, 			{
				"box" : 				{
					"id" : "obj-143",
					"maxclass" : "message",
					"numinlets" : 2,
					"numoutlets" : 1,
					"outlettype" : [ "" ],
					"patching_rect" : [ 473.5, 981.0, 29.5, 22.0 ],
					"style" : "",
					"text" : "1"
				}

			}
, 			{
				"box" : 				{
					"color" : [ 0.92549, 0.364706, 0.341176, 1.0 ],
					"id" : "obj-142",
					"maxclass" : "newobj",
					"numinlets" : 1,
					"numoutlets" : 0,
					"patching_rect" : [ 509.0, 1040.0, 60.0, 22.0 ],
					"style" : "",
					"text" : "s resume"
				}

			}
, 			{
				"box" : 				{
					"color" : [ 0.92549, 0.364706, 0.341176, 1.0 ],
					"id" : "obj-141",
					"maxclass" : "newobj",
					"numinlets" : 1,
					"numoutlets" : 0,
					"patching_rect" : [ 356.0, 1040.0, 65.0, 22.0 ],
					"style" : "",
					"text" : "s suspend"
				}

			}
, 			{
				"box" : 				{
					"id" : "obj-140",
					"maxclass" : "newobj",
					"numinlets" : 2,
					"numoutlets" : 2,
					"outlettype" : [ "", "" ],
					"patching_rect" : [ 253.0, 803.0, 44.0, 22.0 ],
					"style" : "",
					"text" : "gate 2"
				}

			}
, 			{
				"box" : 				{
					"fontsize" : 10.0,
					"id" : "obj-136",
					"maxclass" : "comment",
					"numinlets" : 1,
					"numoutlets" : 0,
					"patching_rect" : [ 621.0, 776.0, 92.0, 18.0 ],
					"presentation" : 1,
					"presentation_rect" : [ 362.5, 50.0, 47.0, 18.0 ],
					"style" : "",
					"text" : "SUSP.",
					"textcolor" : [ 0.0, 0.0, 0.0, 0.63 ]
				}

			}
, 			{
				"box" : 				{
					"bgcolor" : [ 0.290196, 0.309804, 0.301961, 0.67 ],
					"fontname" : "Andale Mono",
					"id" : "obj-135",
					"maxclass" : "number",
					"maximum" : 30,
					"minimum" : 5,
					"numinlets" : 1,
					"numoutlets" : 2,
					"outlettype" : [ "", "bang" ],
					"parameter_enable" : 0,
					"patching_rect" : [ 601.5, 803.0, 54.0, 22.0 ],
					"presentation" : 1,
					"presentation_rect" : [ 363.5, 118.5, 44.0, 22.0 ],
					"style" : "",
					"textcolor" : [ 0.921569, 0.917647, 0.933333, 0.73 ]
				}

			}
, 			{
				"box" : 				{
					"id" : "obj-132",
					"maxclass" : "button",
					"numinlets" : 1,
					"numoutlets" : 1,
					"outlettype" : [ "bang" ],
					"patching_rect" : [ 509.0, 944.0, 24.0, 24.0 ],
					"style" : ""
				}

			}
, 			{
				"box" : 				{
					"id" : "obj-133",
					"maxclass" : "newobj",
					"numinlets" : 2,
					"numoutlets" : 2,
					"outlettype" : [ "bang", "" ],
					"patching_rect" : [ 509.0, 910.0, 132.0, 22.0 ],
					"style" : "",
					"text" : "select 15"
				}

			}
, 			{
				"box" : 				{
					"id" : "obj-134",
					"maxclass" : "newobj",
					"numinlets" : 5,
					"numoutlets" : 4,
					"outlettype" : [ "int", "", "", "int" ],
					"patching_rect" : [ 509.0, 849.0, 112.0, 22.0 ],
					"style" : "",
					"text" : "counter 1 15"
				}

			}
, 			{
				"box" : 				{
					"id" : "obj-131",
					"maxclass" : "button",
					"numinlets" : 1,
					"numoutlets" : 1,
					"outlettype" : [ "bang" ],
					"patching_rect" : [ 356.0, 944.0, 24.0, 24.0 ],
					"style" : ""
				}

			}
, 			{
				"box" : 				{
					"id" : "obj-129",
					"maxclass" : "newobj",
					"numinlets" : 2,
					"numoutlets" : 2,
					"outlettype" : [ "bang", "" ],
					"patching_rect" : [ 356.0, 910.0, 132.0, 22.0 ],
					"style" : "",
					"text" : "select 15"
				}

			}
, 			{
				"box" : 				{
					"id" : "obj-128",
					"maxclass" : "newobj",
					"numinlets" : 5,
					"numoutlets" : 4,
					"outlettype" : [ "int", "", "", "int" ],
					"patching_rect" : [ 356.0, 849.0, 112.0, 22.0 ],
					"style" : "",
					"text" : "counter 1 15"
				}

			}
, 			{
				"box" : 				{
					"bgcolor" : [ 0.501961, 0.0, 0.0, 0.544332 ],
					"color" : [ 0.0, 0.0, 0.0, 1.0 ],
					"elementcolor" : [ 1.0, 0.501961, 0.0, 1.0 ],
					"id" : "obj-127",
					"maxclass" : "ezdac~",
					"numinlets" : 2,
					"numoutlets" : 0,
					"patching_rect" : [ 24.0, 50.0, 45.0, 45.0 ],
					"presentation" : 1,
					"presentation_rect" : [ 16.0, 74.5, 45.0, 45.0 ],
					"style" : ""
				}

			}
, 			{
				"box" : 				{
					"id" : "obj-126",
					"maxclass" : "button",
					"numinlets" : 1,
					"numoutlets" : 1,
					"outlettype" : [ "bang" ],
					"patching_rect" : [ 23.0, 6.0, 24.0, 24.0 ],
					"style" : ""
				}

			}
, 			{
				"box" : 				{
					"id" : "obj-125",
					"maxclass" : "comment",
					"numinlets" : 1,
					"numoutlets" : 0,
					"patching_rect" : [ 343.25, 785.0, 103.75, 20.0 ],
					"presentation" : 1,
					"presentation_rect" : [ 16.0, 646.0, 83.5, 20.0 ],
					"style" : "",
					"text" : "Reset count"
				}

			}
, 			{
				"box" : 				{
					"id" : "obj-124",
					"maxclass" : "button",
					"numinlets" : 1,
					"numoutlets" : 1,
					"outlettype" : [ "bang" ],
					"patching_rect" : [ 311.0, 785.0, 24.0, 24.0 ],
					"presentation" : 1,
					"presentation_rect" : [ 107.25, 646.0, 24.0, 24.0 ],
					"style" : ""
				}

			}
, 			{
				"box" : 				{
					"id" : "obj-123",
					"maxclass" : "message",
					"numinlets" : 2,
					"numoutlets" : 1,
					"outlettype" : [ "" ],
					"patching_rect" : [ 449.0, 718.0, 29.5, 22.0 ],
					"style" : "",
					"text" : "15"
				}

			}
, 			{
				"box" : 				{
					"fontsize" : 10.0,
					"id" : "obj-121",
					"maxclass" : "comment",
					"numinlets" : 1,
					"numoutlets" : 0,
					"patching_rect" : [ 467.0, 776.0, 92.0, 18.0 ],
					"presentation" : 1,
					"presentation_rect" : [ 311.499969, 50.0, 49.0, 18.0 ],
					"style" : "",
					"text" : "INTERV.",
					"textcolor" : [ 0.0, 0.0, 0.0, 0.63 ]
				}

			}
, 			{
				"box" : 				{
					"bgcolor" : [ 0.290196, 0.309804, 0.301961, 0.67 ],
					"fontname" : "Andale Mono",
					"id" : "obj-120",
					"maxclass" : "number",
					"maximum" : 30,
					"minimum" : 5,
					"numinlets" : 1,
					"numoutlets" : 2,
					"outlettype" : [ "", "bang" ],
					"parameter_enable" : 0,
					"patching_rect" : [ 449.0, 803.0, 54.0, 22.0 ],
					"presentation" : 1,
					"presentation_rect" : [ 312.499969, 118.5, 44.0, 22.0 ],
					"style" : "",
					"textcolor" : [ 0.921569, 0.917647, 0.933333, 0.73 ]
				}

			}
, 			{
				"box" : 				{
					"id" : "obj-114",
					"maxclass" : "newobj",
					"numinlets" : 1,
					"numoutlets" : 1,
					"outlettype" : [ "bang" ],
					"patching_rect" : [ 301.0, 619.0, 60.0, 22.0 ],
					"style" : "",
					"text" : "loadbang"
				}

			}
, 			{
				"box" : 				{
					"id" : "obj-103",
					"maxclass" : "button",
					"numinlets" : 1,
					"numoutlets" : 1,
					"outlettype" : [ "bang" ],
					"patching_rect" : [ 337.0, 733.0, 24.0, 24.0 ],
					"style" : ""
				}

			}
, 			{
				"box" : 				{
					"id" : "obj-102",
					"maxclass" : "newobj",
					"numinlets" : 2,
					"numoutlets" : 1,
					"outlettype" : [ "bang" ],
					"patching_rect" : [ 253.0, 733.0, 71.0, 22.0 ],
					"style" : "",
					"text" : "metro 1000"
				}

			}
, 			{
				"box" : 				{
					"id" : "obj-101",
					"maxclass" : "toggle",
					"numinlets" : 1,
					"numoutlets" : 1,
					"outlettype" : [ "int" ],
					"parameter_enable" : 0,
					"patching_rect" : [ 253.0, 697.0, 24.0, 24.0 ],
					"style" : ""
				}

			}
, 			{
				"box" : 				{
					"id" : "obj-96",
					"maxclass" : "message",
					"numinlets" : 2,
					"numoutlets" : 1,
					"outlettype" : [ "" ],
					"patching_rect" : [ 253.0, 654.0, 29.5, 22.0 ],
					"style" : "",
					"text" : "1"
				}

			}
, 			{
				"box" : 				{
					"color" : [ 0.0, 0.0, 0.0, 1.0 ],
					"id" : "obj-93",
					"maxclass" : "newobj",
					"numinlets" : 1,
					"numoutlets" : 0,
					"patching_rect" : [ 1387.0, 165.0, 43.0, 22.0 ],
					"style" : "",
					"text" : "s start"
				}

			}
, 			{
				"box" : 				{
					"color" : [ 0.0, 0.0, 0.0, 1.0 ],
					"id" : "obj-92",
					"maxclass" : "newobj",
					"numinlets" : 0,
					"numoutlets" : 1,
					"outlettype" : [ "" ],
					"patching_rect" : [ 253.0, 619.0, 41.0, 22.0 ],
					"style" : "",
					"text" : "r start"
				}

			}
, 			{
				"box" : 				{
					"fontface" : 1,
					"id" : "obj-88",
					"maxclass" : "comment",
					"numinlets" : 1,
					"numoutlets" : 0,
					"patching_rect" : [ 253.0, 586.0, 166.0, 20.0 ],
					"style" : "",
					"text" : "SUSPENSION SETTINGS"
				}

			}
, 			{
				"box" : 				{
					"bgcolor" : [ 0.285714, 0.256629, 0.217237, 0.66 ],
					"id" : "obj-87",
					"maxclass" : "meter~",
					"numinlets" : 1,
					"numoutlets" : 1,
					"offcolor" : [ 0.0, 0.0, 0.0, 0.86 ],
					"outlettype" : [ "float" ],
					"patching_rect" : [ 147.25, 476.0, 20.0, 58.0 ],
					"presentation" : 1,
					"presentation_rect" : [ 230.125, 75.0, 20.0, 91.5 ],
					"style" : ""
				}

			}
, 			{
				"box" : 				{
					"bgcolor" : [ 0.285714, 0.256629, 0.217237, 0.66 ],
					"id" : "obj-86",
					"maxclass" : "meter~",
					"numinlets" : 1,
					"numoutlets" : 1,
					"offcolor" : [ 0.0, 0.0, 0.0, 0.86 ],
					"outlettype" : [ "float" ],
					"patching_rect" : [ 59.75, 476.0, 20.0, 58.0 ],
					"presentation" : 1,
					"presentation_rect" : [ 208.125, 74.5, 20.0, 91.5 ],
					"style" : ""
				}

			}
, 			{
				"box" : 				{
					"fontsize" : 9.0,
					"id" : "obj-84",
					"maxclass" : "comment",
					"numinlets" : 1,
					"numoutlets" : 0,
					"patching_rect" : [ 84.75, 669.0, 56.0, 17.0 ],
					"presentation" : 1,
					"presentation_rect" : [ 166.125, 49.5, 56.0, 17.0 ],
					"style" : "",
					"text" : "VOLUME",
					"textcolor" : [ 0.0, 0.0, 0.0, 0.63 ]
				}

			}
, 			{
				"box" : 				{
					"bgcolor" : [ 0.501961, 0.0, 0.0, 0.544332 ],
					"blinkcolor" : [ 0.0, 0.0, 0.0, 1.0 ],
					"id" : "obj-81",
					"maxclass" : "button",
					"numinlets" : 1,
					"numoutlets" : 1,
					"outlettype" : [ "bang" ],
					"outlinecolor" : [ 0.0, 0.0, 0.0, 1.0 ],
					"patching_rect" : [ 1112.0, 101.0, 24.0, 24.0 ],
					"presentation" : 1,
					"presentation_rect" : [ 77.0, 74.5, 45.0, 45.0 ],
					"style" : ""
				}

			}
, 			{
				"box" : 				{
					"id" : "obj-80",
					"maxclass" : "newobj",
					"numinlets" : 1,
					"numoutlets" : 1,
					"outlettype" : [ "bang" ],
					"patching_rect" : [ 1027.0, 65.0, 60.0, 22.0 ],
					"style" : "",
					"text" : "loadbang"
				}

			}
, 			{
				"box" : 				{
					"id" : "obj-79",
					"maxclass" : "message",
					"numinlets" : 2,
					"numoutlets" : 1,
					"outlettype" : [ "" ],
					"patching_rect" : [ 1027.0, 130.0, 68.0, 22.0 ],
					"style" : "",
					"text" : "range 0 10"
				}

			}
, 			{
				"box" : 				{
					"id" : "obj-76",
					"maxclass" : "message",
					"numinlets" : 2,
					"numoutlets" : 1,
					"outlettype" : [ "" ],
					"patching_rect" : [ 934.0, 130.0, 83.0, 22.0 ],
					"style" : "",
					"text" : "setdomain $1"
				}

			}
, 			{
				"box" : 				{
					"color" : [ 0.701961, 0.415686, 0.886275, 1.0 ],
					"id" : "obj-75",
					"maxclass" : "newobj",
					"numinlets" : 0,
					"numoutlets" : 1,
					"outlettype" : [ "" ],
					"patching_rect" : [ 934.0, 87.0, 57.0, 22.0 ],
					"style" : "",
					"text" : "r domain"
				}

			}
, 			{
				"box" : 				{
					"color" : [ 0.701961, 0.415686, 0.886275, 1.0 ],
					"id" : "obj-71",
					"maxclass" : "newobj",
					"numinlets" : 1,
					"numoutlets" : 0,
					"patching_rect" : [ 646.0, 453.0, 59.0, 22.0 ],
					"style" : "",
					"text" : "s domain"
				}

			}
, 			{
				"box" : 				{
					"color" : [ 0.317647, 0.654902, 0.976471, 1.0 ],
					"id" : "obj-70",
					"maxclass" : "newobj",
					"numinlets" : 1,
					"numoutlets" : 0,
					"patching_rect" : [ 560.0, 596.0, 75.0, 22.0 ],
					"style" : "",
					"text" : "s time_code"
				}

			}
, 			{
				"box" : 				{
					"id" : "obj-69",
					"maxclass" : "newobj",
					"numinlets" : 2,
					"numoutlets" : 1,
					"outlettype" : [ "" ],
					"patching_rect" : [ 560.0, 561.0, 56.0, 22.0 ],
					"style" : "",
					"text" : "pack 0 0"
				}

			}
, 			{
				"box" : 				{
					"id" : "obj-68",
					"maxclass" : "number",
					"numinlets" : 1,
					"numoutlets" : 2,
					"outlettype" : [ "", "bang" ],
					"parameter_enable" : 0,
					"patching_rect" : [ 613.0, 527.0, 50.0, 22.0 ],
					"style" : ""
				}

			}
, 			{
				"box" : 				{
					"id" : "obj-67",
					"maxclass" : "number",
					"numinlets" : 1,
					"numoutlets" : 2,
					"outlettype" : [ "", "bang" ],
					"parameter_enable" : 0,
					"patching_rect" : [ 560.0, 527.0, 50.0, 22.0 ],
					"style" : ""
				}

			}
, 			{
				"box" : 				{
					"id" : "obj-66",
					"maxclass" : "newobj",
					"numinlets" : 2,
					"numoutlets" : 1,
					"outlettype" : [ "int" ],
					"patching_rect" : [ 613.0, 493.0, 38.0, 22.0 ],
					"style" : "",
					"text" : "% 60"
				}

			}
, 			{
				"box" : 				{
					"id" : "obj-65",
					"maxclass" : "newobj",
					"numinlets" : 2,
					"numoutlets" : 1,
					"outlettype" : [ "int" ],
					"patching_rect" : [ 560.0, 493.0, 31.0, 22.0 ],
					"style" : "",
					"text" : "/ 60"
				}

			}
, 			{
				"box" : 				{
					"id" : "obj-64",
					"maxclass" : "newobj",
					"numinlets" : 2,
					"numoutlets" : 1,
					"outlettype" : [ "int" ],
					"patching_rect" : [ 560.0, 453.0, 44.0, 22.0 ],
					"style" : "",
					"text" : "/ 1000"
				}

			}
, 			{
				"box" : 				{
					"id" : "obj-62",
					"maxclass" : "number",
					"numinlets" : 1,
					"numoutlets" : 2,
					"outlettype" : [ "", "bang" ],
					"parameter_enable" : 0,
					"patching_rect" : [ 560.0, 412.0, 92.0, 22.0 ],
					"style" : ""
				}

			}
, 			{
				"box" : 				{
					"id" : "obj-61",
					"maxclass" : "number",
					"numinlets" : 1,
					"numoutlets" : 2,
					"outlettype" : [ "", "bang" ],
					"parameter_enable" : 0,
					"patching_rect" : [ 646.0, 337.0, 50.0, 22.0 ],
					"style" : ""
				}

			}
, 			{
				"box" : 				{
					"id" : "obj-60",
					"maxclass" : "message",
					"numinlets" : 2,
					"numoutlets" : 1,
					"outlettype" : [ "" ],
					"patching_rect" : [ 560.0, 337.0, 37.0, 22.0 ],
					"style" : "",
					"text" : "1000"
				}

			}
, 			{
				"box" : 				{
					"fontface" : 1,
					"id" : "obj-59",
					"maxclass" : "comment",
					"numinlets" : 1,
					"numoutlets" : 0,
					"patching_rect" : [ 560.0, 270.0, 181.0, 20.0 ],
					"style" : "",
					"text" : "DURATION SETTINGS 2"
				}

			}
, 			{
				"box" : 				{
					"id" : "obj-58",
					"maxclass" : "newobj",
					"numinlets" : 1,
					"numoutlets" : 1,
					"outlettype" : [ "bang" ],
					"patching_rect" : [ 560.0, 297.0, 60.0, 22.0 ],
					"style" : "",
					"text" : "loadbang"
				}

			}
, 			{
				"box" : 				{
					"color" : [ 0.317647, 0.654902, 0.976471, 1.0 ],
					"id" : "obj-57",
					"maxclass" : "newobj",
					"numinlets" : 0,
					"numoutlets" : 1,
					"outlettype" : [ "" ],
					"patching_rect" : [ 646.0, 297.0, 61.0, 22.0 ],
					"style" : "",
					"text" : "r duration"
				}

			}
, 			{
				"box" : 				{
					"bgcolor" : [ 0.290196, 0.309804, 0.301961, 0.67 ],
					"fontname" : "Andale Mono",
					"id" : "obj-56",
					"maxclass" : "number",
					"numinlets" : 1,
					"numoutlets" : 2,
					"outlettype" : [ "", "bang" ],
					"parameter_enable" : 0,
					"patching_rect" : [ 699.0, 235.0, 54.0, 22.0 ],
					"presentation" : 1,
					"presentation_rect" : [ 460.0, 93.5, 46.0, 22.0 ],
					"style" : "",
					"textcolor" : [ 0.921569, 0.917647, 0.933333, 0.73 ]
				}

			}
, 			{
				"box" : 				{
					"bgcolor" : [ 0.290196, 0.309804, 0.301961, 0.67 ],
					"fontname" : "Andale Mono",
					"id" : "obj-55",
					"maxclass" : "number",
					"numinlets" : 1,
					"numoutlets" : 2,
					"outlettype" : [ "", "bang" ],
					"parameter_enable" : 0,
					"patching_rect" : [ 643.0, 235.0, 55.0, 22.0 ],
					"presentation" : 1,
					"presentation_rect" : [ 423.0, 93.5, 43.0, 22.0 ],
					"style" : "",
					"textcolor" : [ 0.921569, 0.917647, 0.933333, 0.73 ]
				}

			}
, 			{
				"box" : 				{
					"id" : "obj-54",
					"maxclass" : "newobj",
					"numinlets" : 1,
					"numoutlets" : 2,
					"outlettype" : [ "int", "int" ],
					"patching_rect" : [ 643.0, 199.0, 69.0, 22.0 ],
					"style" : "",
					"text" : "unpack 0 0"
				}

			}
, 			{
				"box" : 				{
					"color" : [ 0.317647, 0.654902, 0.976471, 1.0 ],
					"id" : "obj-53",
					"maxclass" : "newobj",
					"numinlets" : 0,
					"numoutlets" : 1,
					"outlettype" : [ "" ],
					"patching_rect" : [ 643.0, 164.0, 73.0, 22.0 ],
					"style" : "",
					"text" : "r time_code"
				}

			}
, 			{
				"box" : 				{
					"bgcolor" : [ 1.0, 1.0, 0.0, 1.0 ],
					"elementcolor" : [ 0.25098, 0.0, 0.501961, 0.44 ],
					"id" : "obj-52",
					"knobcolor" : [ 0.0, 0.0, 0.0, 1.0 ],
					"maxclass" : "slider",
					"numinlets" : 1,
					"numoutlets" : 1,
					"outlettype" : [ "" ],
					"parameter_enable" : 0,
					"patching_rect" : [ 560.0, 129.0, 116.0, 18.0 ],
					"presentation" : 1,
					"presentation_rect" : [ 423.0, 123.0, 79.0, 18.0 ],
					"size" : 300.0,
					"style" : ""
				}

			}
, 			{
				"box" : 				{
					"color" : [ 0.317647, 0.654902, 0.976471, 1.0 ],
					"id" : "obj-50",
					"maxclass" : "newobj",
					"numinlets" : 1,
					"numoutlets" : 0,
					"patching_rect" : [ 560.0, 235.0, 63.0, 22.0 ],
					"style" : "",
					"text" : "s duration"
				}

			}
, 			{
				"box" : 				{
					"id" : "obj-49",
					"maxclass" : "newobj",
					"numinlets" : 2,
					"numoutlets" : 1,
					"outlettype" : [ "int" ],
					"patching_rect" : [ 560.0, 164.0, 32.0, 22.0 ],
					"style" : "",
					"text" : "* 10"
				}

			}
, 			{
				"box" : 				{
					"fontface" : 1,
					"id" : "obj-48",
					"maxclass" : "comment",
					"numinlets" : 1,
					"numoutlets" : 0,
					"patching_rect" : [ 560.0, 104.0, 181.0, 20.0 ],
					"style" : "",
					"text" : "DURATION SETTINGS 1"
				}

			}
, 			{
				"box" : 				{
					"fontface" : 0,
					"fontsize" : 9.0,
					"id" : "obj-47",
					"maxclass" : "comment",
					"numinlets" : 1,
					"numoutlets" : 0,
					"patching_rect" : [ 474.0, 104.0, 56.0, 17.0 ],
					"presentation" : 1,
					"presentation_rect" : [ 260.499969, 50.0, 46.0, 17.0 ],
					"style" : "",
					"text" : "TUNING",
					"textcolor" : [ 0.0, 0.0, 0.0, 0.63 ]
				}

			}
, 			{
				"box" : 				{
					"color" : [ 0.92549, 0.364706, 0.341176, 1.0 ],
					"id" : "obj-46",
					"maxclass" : "newobj",
					"numinlets" : 0,
					"numoutlets" : 1,
					"outlettype" : [ "" ],
					"patching_rect" : [ 356.5, 139.0, 67.0, 22.0 ],
					"style" : "",
					"text" : "r stand_by"
				}

			}
, 			{
				"box" : 				{
					"color" : [ 0.960784, 0.827451, 0.156863, 1.0 ],
					"id" : "obj-44",
					"maxclass" : "newobj",
					"numinlets" : 1,
					"numoutlets" : 0,
					"patching_rect" : [ 346.0, 555.0, 62.0, 22.0 ],
					"style" : "",
					"text" : "s signal-2"
				}

			}
, 			{
				"box" : 				{
					"color" : [ 0.952941, 0.564706, 0.098039, 1.0 ],
					"id" : "obj-45",
					"maxclass" : "newobj",
					"numinlets" : 1,
					"numoutlets" : 0,
					"patching_rect" : [ 253.0, 555.0, 62.0, 22.0 ],
					"style" : "",
					"text" : "s signal-1"
				}

			}
, 			{
				"box" : 				{
					"format" : 6,
					"id" : "obj-42",
					"maxclass" : "flonum",
					"numinlets" : 1,
					"numoutlets" : 2,
					"outlettype" : [ "", "bang" ],
					"parameter_enable" : 0,
					"patching_rect" : [ 346.0, 520.0, 50.0, 22.0 ],
					"style" : ""
				}

			}
, 			{
				"box" : 				{
					"format" : 6,
					"id" : "obj-43",
					"maxclass" : "flonum",
					"numinlets" : 1,
					"numoutlets" : 2,
					"outlettype" : [ "", "bang" ],
					"parameter_enable" : 0,
					"patching_rect" : [ 253.0, 520.0, 50.0, 22.0 ],
					"style" : ""
				}

			}
, 			{
				"box" : 				{
					"fontface" : 0,
					"fontname" : "Arial",
					"fontsize" : 12.0,
					"id" : "obj-41",
					"maxclass" : "number~",
					"mode" : 2,
					"numinlets" : 2,
					"numoutlets" : 2,
					"outlettype" : [ "signal", "float" ],
					"patching_rect" : [ 346.0, 479.5, 56.0, 22.0 ],
					"sig" : 0.0,
					"style" : ""
				}

			}
, 			{
				"box" : 				{
					"fontface" : 0,
					"fontname" : "Arial",
					"fontsize" : 12.0,
					"id" : "obj-40",
					"maxclass" : "number~",
					"mode" : 2,
					"numinlets" : 2,
					"numoutlets" : 2,
					"outlettype" : [ "signal", "float" ],
					"patching_rect" : [ 253.0, 479.5, 56.0, 22.0 ],
					"sig" : 0.0,
					"style" : ""
				}

			}
, 			{
				"box" : 				{
					"color" : [ 0.960784, 0.827451, 0.156863, 1.0 ],
					"id" : "obj-38",
					"maxclass" : "newobj",
					"numinlets" : 2,
					"numoutlets" : 2,
					"outlettype" : [ "signal", "bang" ],
					"patching_rect" : [ 346.0, 442.0, 72.0, 22.0 ],
					"style" : "",
					"text" : "line~"
				}

			}
, 			{
				"box" : 				{
					"color" : [ 0.952941, 0.564706, 0.098039, 1.0 ],
					"id" : "obj-37",
					"maxclass" : "newobj",
					"numinlets" : 2,
					"numoutlets" : 2,
					"outlettype" : [ "signal", "bang" ],
					"patching_rect" : [ 253.0, 442.0, 72.0, 22.0 ],
					"style" : "",
					"text" : "line~"
				}

			}
, 			{
				"box" : 				{
					"color" : [ 0.960784, 0.827451, 0.156863, 1.0 ],
					"id" : "obj-36",
					"maxclass" : "newobj",
					"numinlets" : 0,
					"numoutlets" : 1,
					"outlettype" : [ "" ],
					"patching_rect" : [ 346.0, 402.0, 47.0, 22.0 ],
					"style" : "",
					"text" : "r line-2"
				}

			}
, 			{
				"box" : 				{
					"color" : [ 0.952941, 0.564706, 0.098039, 1.0 ],
					"id" : "obj-35",
					"maxclass" : "newobj",
					"numinlets" : 0,
					"numoutlets" : 1,
					"outlettype" : [ "" ],
					"patching_rect" : [ 253.0, 402.0, 47.0, 22.0 ],
					"style" : "",
					"text" : "r line-1"
				}

			}
, 			{
				"box" : 				{
					"id" : "obj-34",
					"maxclass" : "message",
					"numinlets" : 2,
					"numoutlets" : 1,
					"outlettype" : [ "" ],
					"patching_rect" : [ 346.0, 354.0, 51.0, 22.0 ],
					"style" : "",
					"text" : "resume"
				}

			}
, 			{
				"box" : 				{
					"id" : "obj-33",
					"maxclass" : "message",
					"numinlets" : 2,
					"numoutlets" : 1,
					"outlettype" : [ "" ],
					"patching_rect" : [ 253.0, 354.0, 43.0, 22.0 ],
					"style" : "",
					"text" : "pause"
				}

			}
, 			{
				"box" : 				{
					"bgcolor" : [ 0.501961, 0.0, 0.0, 0.58 ],
					"blinkcolor" : [ 0.941176, 0.690196, 0.196078, 1.0 ],
					"id" : "obj-30",
					"maxclass" : "button",
					"numinlets" : 1,
					"numoutlets" : 1,
					"outlettype" : [ "bang" ],
					"outlinecolor" : [ 0.0, 0.0, 0.0, 1.0 ],
					"patching_rect" : [ 346.0, 253.0, 24.0, 24.0 ],
					"presentation" : 1,
					"presentation_rect" : [ 312.499969, 143.0, 24.0, 24.0 ],
					"style" : ""
				}

			}
, 			{
				"box" : 				{
					"bgcolor" : [ 0.501961, 0.0, 0.0, 0.58 ],
					"blinkcolor" : [ 0.941176, 0.690196, 0.196078, 1.0 ],
					"id" : "obj-29",
					"maxclass" : "button",
					"numinlets" : 1,
					"numoutlets" : 1,
					"outlettype" : [ "bang" ],
					"outlinecolor" : [ 0.0, 0.0, 0.0, 1.0 ],
					"patching_rect" : [ 253.0, 253.0, 24.0, 24.0 ],
					"presentation" : 1,
					"presentation_rect" : [ 363.5, 143.0, 24.0, 24.0 ],
					"style" : ""
				}

			}
, 			{
				"box" : 				{
					"id" : "obj-95",
					"maxclass" : "newobj",
					"numinlets" : 3,
					"numoutlets" : 3,
					"outlettype" : [ "bang", "bang", "" ],
					"patching_rect" : [ 253.0, 173.0, 89.0, 22.0 ],
					"style" : "",
					"text" : "select 122 120"
				}

			}
, 			{
				"box" : 				{
					"id" : "obj-28",
					"maxclass" : "newobj",
					"numinlets" : 0,
					"numoutlets" : 4,
					"outlettype" : [ "int", "int", "int", "int" ],
					"patching_rect" : [ 253.0, 139.0, 50.5, 22.0 ],
					"style" : "",
					"text" : "key"
				}

			}
, 			{
				"box" : 				{
					"fontface" : 1,
					"id" : "obj-27",
					"maxclass" : "comment",
					"numinlets" : 1,
					"numoutlets" : 0,
					"patching_rect" : [ 253.0, 105.0, 122.0, 20.0 ],
					"style" : "",
					"text" : "LINE READING"
				}

			}
, 			{
				"box" : 				{
					"color" : [ 0.439216, 0.74902, 0.254902, 1.0 ],
					"id" : "obj-26",
					"maxclass" : "newobj",
					"numinlets" : 1,
					"numoutlets" : 0,
					"patching_rect" : [ 474.0, 337.0, 53.0, 22.0 ],
					"style" : "",
					"text" : "s tuning"
				}

			}
, 			{
				"box" : 				{
					"bgcolor" : [ 0.290196, 0.309804, 0.301961, 0.67 ],
					"fontname" : "Andale Mono",
					"format" : 6,
					"id" : "obj-25",
					"maxclass" : "flonum",
					"maximum" : 20.0,
					"minimum" : 0.0,
					"numinlets" : 1,
					"numoutlets" : 2,
					"outlettype" : [ "", "bang" ],
					"parameter_enable" : 0,
					"patching_rect" : [ 474.0, 301.0, 60.0, 22.0 ],
					"presentation" : 1,
					"presentation_rect" : [ 261.499969, 118.5, 50.0, 22.0 ],
					"style" : "",
					"textcolor" : [ 0.921569, 0.917647, 0.933333, 0.73 ]
				}

			}
, 			{
				"box" : 				{
					"id" : "obj-24",
					"maxclass" : "message",
					"numinlets" : 2,
					"numoutlets" : 1,
					"outlettype" : [ "" ],
					"patching_rect" : [ 474.0, 164.0, 29.5, 22.0 ],
					"style" : "",
					"text" : "39"
				}

			}
, 			{
				"box" : 				{
					"id" : "obj-23",
					"maxclass" : "newobj",
					"numinlets" : 1,
					"numoutlets" : 1,
					"outlettype" : [ "bang" ],
					"patching_rect" : [ 474.0, 129.0, 60.0, 22.0 ],
					"style" : "",
					"text" : "loadbang"
				}

			}
, 			{
				"box" : 				{
					"color" : [ 0.439216, 0.74902, 0.254902, 1.0 ],
					"id" : "obj-22",
					"maxclass" : "newobj",
					"numinlets" : 0,
					"numoutlets" : 1,
					"outlettype" : [ "" ],
					"patching_rect" : [ 191.0, 139.0, 51.0, 22.0 ],
					"style" : "",
					"text" : "r tuning"
				}

			}
, 			{
				"box" : 				{
					"format" : 6,
					"id" : "obj-21",
					"maxclass" : "flonum",
					"maximum" : 0.99,
					"minimum" : 0.0,
					"numinlets" : 1,
					"numoutlets" : 2,
					"outlettype" : [ "", "bang" ],
					"parameter_enable" : 0,
					"patching_rect" : [ 170.75, 390.0, 50.0, 22.0 ],
					"style" : ""
				}

			}
, 			{
				"box" : 				{
					"color" : [ 0.960784, 0.827451, 0.156863, 1.0 ],
					"id" : "obj-19",
					"maxclass" : "newobj",
					"numinlets" : 1,
					"numoutlets" : 0,
					"patching_rect" : [ 121.5, 541.0, 47.0, 22.0 ],
					"style" : "",
					"text" : "dac~ 2"
				}

			}
, 			{
				"box" : 				{
					"color" : [ 0.952941, 0.564706, 0.098039, 1.0 ],
					"id" : "obj-18",
					"maxclass" : "newobj",
					"numinlets" : 1,
					"numoutlets" : 0,
					"patching_rect" : [ 34.0, 541.0, 47.0, 22.0 ],
					"style" : "",
					"text" : "dac~ 1"
				}

			}
, 			{
				"box" : 				{
					"color" : [ 0.960784, 0.827451, 0.156863, 1.0 ],
					"id" : "obj-17",
					"maxclass" : "newobj",
					"numinlets" : 2,
					"numoutlets" : 1,
					"outlettype" : [ "signal" ],
					"patching_rect" : [ 121.5, 435.0, 29.5, 22.0 ],
					"style" : "",
					"text" : "*~"
				}

			}
, 			{
				"box" : 				{
					"color" : [ 0.952941, 0.564706, 0.098039, 1.0 ],
					"id" : "obj-16",
					"maxclass" : "newobj",
					"numinlets" : 2,
					"numoutlets" : 1,
					"outlettype" : [ "signal" ],
					"patching_rect" : [ 34.0, 435.0, 29.5, 22.0 ],
					"style" : "",
					"text" : "*~"
				}

			}
, 			{
				"box" : 				{
					"color" : [ 0.960784, 0.827451, 0.156863, 1.0 ],
					"id" : "obj-13",
					"maxclass" : "newobj",
					"numinlets" : 2,
					"numoutlets" : 1,
					"outlettype" : [ "signal" ],
					"patching_rect" : [ 121.5, 283.0, 54.0, 22.0 ],
					"style" : "",
					"text" : "phasor~"
				}

			}
, 			{
				"box" : 				{
					"color" : [ 0.952941, 0.564706, 0.098039, 1.0 ],
					"id" : "obj-12",
					"maxclass" : "newobj",
					"numinlets" : 2,
					"numoutlets" : 1,
					"outlettype" : [ "signal" ],
					"patching_rect" : [ 34.0, 283.0, 54.0, 22.0 ],
					"style" : "",
					"text" : "phasor~"
				}

			}
, 			{
				"box" : 				{
					"bgcolor" : [ 0.290196, 0.309804, 0.301961, 0.67 ],
					"fontname" : "Andale Mono",
					"format" : 6,
					"id" : "obj-9",
					"maxclass" : "flonum",
					"numinlets" : 1,
					"numoutlets" : 2,
					"outlettype" : [ "", "bang" ],
					"parameter_enable" : 0,
					"patching_rect" : [ 121.5, 249.0, 122.0, 22.0 ],
					"presentation" : 1,
					"presentation_rect" : [ 522.0, 180.5, 135.0, 22.0 ],
					"style" : "",
					"textcolor" : [ 0.921569, 0.917647, 0.933333, 0.73 ]
				}

			}
, 			{
				"box" : 				{
					"color" : [ 0.960784, 0.827451, 0.156863, 1.0 ],
					"id" : "obj-10",
					"maxclass" : "newobj",
					"numinlets" : 2,
					"numoutlets" : 1,
					"outlettype" : [ "float" ],
					"patching_rect" : [ 121.5, 216.0, 34.0, 22.0 ],
					"style" : "",
					"text" : "/ 3.5"
				}

			}
, 			{
				"box" : 				{
					"color" : [ 0.960784, 0.827451, 0.156863, 1.0 ],
					"id" : "obj-11",
					"maxclass" : "newobj",
					"numinlets" : 2,
					"numoutlets" : 1,
					"outlettype" : [ "float" ],
					"patching_rect" : [ 121.5, 179.0, 42.0, 22.0 ],
					"style" : "",
					"text" : "* 100."
				}

			}
, 			{
				"box" : 				{
					"bgcolor" : [ 0.290196, 0.309804, 0.301961, 0.67 ],
					"fontname" : "Andale Mono",
					"format" : 6,
					"id" : "obj-8",
					"maxclass" : "flonum",
					"numinlets" : 1,
					"numoutlets" : 2,
					"outlettype" : [ "", "bang" ],
					"parameter_enable" : 0,
					"patching_rect" : [ 34.0, 249.0, 85.0, 22.0 ],
					"presentation" : 1,
					"presentation_rect" : [ 72.125, 180.5, 143.0, 22.0 ],
					"style" : "",
					"textcolor" : [ 0.921569, 0.917647, 0.933333, 0.73 ]
				}

			}
, 			{
				"box" : 				{
					"color" : [ 0.952941, 0.564706, 0.098039, 1.0 ],
					"id" : "obj-7",
					"maxclass" : "newobj",
					"numinlets" : 2,
					"numoutlets" : 1,
					"outlettype" : [ "float" ],
					"patching_rect" : [ 34.0, 216.0, 34.0, 22.0 ],
					"style" : "",
					"text" : "/ 3.5"
				}

			}
, 			{
				"box" : 				{
					"color" : [ 0.952941, 0.564706, 0.098039, 1.0 ],
					"id" : "obj-6",
					"maxclass" : "newobj",
					"numinlets" : 2,
					"numoutlets" : 1,
					"outlettype" : [ "float" ],
					"patching_rect" : [ 34.0, 179.0, 42.0, 22.0 ],
					"style" : "",
					"text" : "* 100."
				}

			}
, 			{
				"box" : 				{
					"color" : [ 0.960784, 0.827451, 0.156863, 1.0 ],
					"id" : "obj-5",
					"maxclass" : "newobj",
					"numinlets" : 0,
					"numoutlets" : 1,
					"outlettype" : [ "" ],
					"patching_rect" : [ 121.5, 127.0, 60.0, 22.0 ],
					"style" : "",
					"text" : "r signal-2"
				}

			}
, 			{
				"box" : 				{
					"color" : [ 0.952941, 0.564706, 0.098039, 1.0 ],
					"id" : "obj-4",
					"maxclass" : "newobj",
					"numinlets" : 0,
					"numoutlets" : 1,
					"outlettype" : [ "" ],
					"patching_rect" : [ 34.0, 129.0, 60.0, 22.0 ],
					"style" : "",
					"text" : "r signal-1"
				}

			}
, 			{
				"box" : 				{
					"bgcolor" : [ 0.290196, 0.309804, 0.301961, 0.67 ],
					"fontface" : 1,
					"id" : "obj-3",
					"maxclass" : "comment",
					"numinlets" : 1,
					"numoutlets" : 0,
					"patching_rect" : [ 121.5, 105.0, 50.0, 20.0 ],
					"presentation" : 1,
					"presentation_rect" : [ 466.499969, 180.5, 50.0, 20.0 ],
					"style" : "",
					"text" : "ISO 2"
				}

			}
, 			{
				"box" : 				{
					"bgcolor" : [ 0.290196, 0.309804, 0.301961, 0.67 ],
					"fontface" : 1,
					"id" : "obj-2",
					"maxclass" : "comment",
					"numinlets" : 1,
					"numoutlets" : 0,
					"patching_rect" : [ 34.0, 105.0, 50.0, 20.0 ],
					"presentation" : 1,
					"presentation_rect" : [ 17.0, 182.5, 50.0, 20.0 ],
					"style" : "",
					"text" : "ISO 1"
				}

			}
, 			{
				"box" : 				{
					"addpoints" : [ 0.0, 3.75, 0, 4963.50293, 3.930412, 0, 9927.005859, 4.136598, 0, 17992.738281, 4.484536, 0, 26058.394531, 4.832474, 0, 34744.523438, 5.219072, 0, 43430.652344, 5.631444, 0, 52116.789062, 6.121134, 0, 63284.671875, 6.507732, 0, 78175.1875, 6.739691, 0, 94306.578125, 6.920103, 0, 109197.085938, 6.89433, 0, 122846.6875, 6.81701, 0, 138978.09375, 6.533505, 0, 151386.8125, 6.32732, 0, 163795.65625, 6.043815, 0, 174963.5, 5.60567, 0, 184890.484375, 4.987113, 0, 197299.234375, 4.291237, 0, 219635.0625, 3.595361, 0, 256861.3125, 2.796392, 0, 290365.03125, 2.177835, 0, 341240.9375, 1.224227, 0, 394598.46875, 0.451031, 0, 425000.0625, 0.154639, 0, 465949.0, 0.051546, 0, 510000.0, 0.0, 0 ],
					"bgcolor" : [ 1.0, 0.501961, 0.0, 0.5 ],
					"domain" : 510000.0,
					"id" : "obj-1",
					"linecolor" : [ 0.439216, 0.74902, 0.254902, 1.0 ],
					"maxclass" : "function",
					"numinlets" : 1,
					"numoutlets" : 4,
					"outlettype" : [ "float", "", "", "bang" ],
					"parameter_enable" : 0,
					"patching_rect" : [ 1364.0, 201.0, 423.0, 413.0 ],
					"presentation" : 1,
					"presentation_rect" : [ 463.499969, 212.5, 423.0, 413.0 ],
					"range" : [ 0.0, 10.0 ],
					"style" : ""
				}

			}
, 			{
				"box" : 				{
					"addpoints" : [ 0.0, 8.75, 0, 13649.59668, 8.724227, 0, 27299.226562, 8.518042, 0, 38467.117188, 8.234536, 0, 47153.25, 7.925258, 0, 68248.15625, 7.770618, 0, 89343.039062, 8.054124, 0, 101751.789062, 8.414948, 0, 111678.78125, 8.904639, 0, 120364.921875, 9.059278, 0, 131532.8125, 9.059278, 0, 138978.0625, 8.904639, 0, 147664.21875, 8.363402, 0, 151386.8125, 7.770618, 0, 163795.578125, 7.229382, 0, 177445.234375, 6.610825, 0, 196058.359375, 6.121134, 0, 212189.734375, 5.476804, 0, 238248.125, 4.239691, 0, 256861.3125, 3.634021, 0, 282919.65625, 3.10567, 0, 338759.0625, 1.945876, 0, 402043.84375, 1.043814, 0, 435547.46875, 0.695876, 0, 483941.625, 0.335052, 0, 510000.0, 0.206186, 0 ],
					"bgcolor" : [ 1.0, 0.501961, 0.0, 0.5 ],
					"domain" : 510000.0,
					"id" : "obj-74",
					"linecolor" : [ 0.960784, 0.827451, 0.156863, 1.0 ],
					"maxclass" : "function",
					"numinlets" : 1,
					"numoutlets" : 4,
					"outlettype" : [ "float", "", "", "bang" ],
					"parameter_enable" : 0,
					"patching_rect" : [ 934.0, 201.0, 423.0, 413.0 ],
					"presentation" : 1,
					"presentation_rect" : [ 14.0, 212.5, 423.0, 413.0 ],
					"range" : [ 0.0, 10.0 ],
					"style" : ""
				}

			}
, 			{
				"box" : 				{
					"angle" : 270.0,
					"grad1" : [ 0.952941, 0.564706, 0.098039, 1.0 ],
					"grad2" : [ 0.952941, 0.564706, 0.098039, 1.0 ],
					"id" : "obj-100",
					"maxclass" : "panel",
					"mode" : 1,
					"numinlets" : 1,
					"numoutlets" : 0,
					"patching_rect" : [ 560.0, 3.5, 109.0, 27.0 ],
					"presentation" : 1,
					"presentation_rect" : [ 9.0, 49.5, 879.5, 18.0 ],
					"proportion" : 0.39,
					"style" : ""
				}

			}
, 			{
				"box" : 				{
					"angle" : 270.0,
					"grad1" : [ 0.952941, 0.564706, 0.098039, 1.0 ],
					"grad2" : [ 0.952941, 0.564706, 0.098039, 1.0 ],
					"id" : "obj-104",
					"maxclass" : "panel",
					"mode" : 1,
					"numinlets" : 1,
					"numoutlets" : 0,
					"patching_rect" : [ 684.0, 3.5, 109.0, 27.0 ],
					"presentation" : 1,
					"presentation_rect" : [ 9.0, 71.5, 879.5, 99.0 ],
					"proportion" : 0.39,
					"style" : ""
				}

			}
, 			{
				"box" : 				{
					"angle" : 270.0,
					"grad1" : [ 0.952941, 0.564706, 0.098039, 1.0 ],
					"grad2" : [ 0.952941, 0.564706, 0.098039, 1.0 ],
					"id" : "obj-106",
					"maxclass" : "panel",
					"mode" : 1,
					"numinlets" : 1,
					"numoutlets" : 0,
					"patching_rect" : [ 560.0, 50.0, 109.0, 27.0 ],
					"presentation" : 1,
					"presentation_rect" : [ 9.0, 178.5, 879.5, 28.0 ],
					"proportion" : 0.39,
					"style" : ""
				}

			}
, 			{
				"box" : 				{
					"angle" : 270.0,
					"grad1" : [ 0.572549, 0.27451, 0.027451, 1.0 ],
					"grad2" : [ 0.572549, 0.27451, 0.027451, 1.0 ],
					"id" : "obj-105",
					"maxclass" : "panel",
					"mode" : 1,
					"numinlets" : 1,
					"numoutlets" : 0,
					"patching_rect" : [ 804.0, 3.5, 109.0, 27.0 ],
					"presentation" : 1,
					"presentation_rect" : [ -5.0, 0.0, 928.0, 683.0 ],
					"proportion" : 0.39,
					"style" : ""
				}

			}
 ],
		"lines" : [ 			{
				"patchline" : 				{
					"destination" : [ "obj-161", 0 ],
					"source" : [ "obj-1", 1 ]
				}

			}
, 			{
				"patchline" : 				{
					"destination" : [ "obj-9", 0 ],
					"source" : [ "obj-10", 0 ]
				}

			}
, 			{
				"patchline" : 				{
					"destination" : [ "obj-102", 0 ],
					"source" : [ "obj-101", 0 ]
				}

			}
, 			{
				"patchline" : 				{
					"destination" : [ "obj-103", 0 ],
					"midpoints" : [ 262.5, 761.0, 332.0, 761.0, 332.0, 727.0, 346.5, 727.0 ],
					"order" : 0,
					"source" : [ "obj-102", 0 ]
				}

			}
, 			{
				"patchline" : 				{
					"destination" : [ "obj-160", 0 ],
					"midpoints" : [ 262.5, 762.0, 225.5, 762.0 ],
					"order" : 1,
					"source" : [ "obj-102", 0 ]
				}

			}
, 			{
				"patchline" : 				{
					"destination" : [ "obj-140", 1 ],
					"midpoints" : [ 346.5, 778.0, 287.5, 778.0 ],
					"source" : [ "obj-103", 0 ]
				}

			}
, 			{
				"patchline" : 				{
					"destination" : [ "obj-10", 0 ],
					"source" : [ "obj-11", 0 ]
				}

			}
, 			{
				"patchline" : 				{
					"destination" : [ "obj-123", 0 ],
					"midpoints" : [ 310.5, 707.0, 458.5, 707.0 ],
					"order" : 0,
					"source" : [ "obj-114", 0 ]
				}

			}
, 			{
				"patchline" : 				{
					"destination" : [ "obj-147", 0 ],
					"midpoints" : [ 310.5, 708.0, 406.75, 708.0 ],
					"order" : 1,
					"source" : [ "obj-114", 0 ]
				}

			}
, 			{
				"patchline" : 				{
					"destination" : [ "obj-16", 0 ],
					"source" : [ "obj-12", 0 ]
				}

			}
, 			{
				"patchline" : 				{
					"destination" : [ "obj-128", 4 ],
					"source" : [ "obj-120", 0 ]
				}

			}
, 			{
				"patchline" : 				{
					"destination" : [ "obj-120", 0 ],
					"order" : 3,
					"source" : [ "obj-123", 0 ]
				}

			}
, 			{
				"patchline" : 				{
					"destination" : [ "obj-135", 0 ],
					"midpoints" : [ 458.5, 759.0, 611.0, 759.0 ],
					"order" : 1,
					"source" : [ "obj-123", 0 ]
				}

			}
, 			{
				"patchline" : 				{
					"destination" : [ "obj-90", 0 ],
					"order" : 2,
					"source" : [ "obj-123", 0 ]
				}

			}
, 			{
				"patchline" : 				{
					"destination" : [ "obj-91", 0 ],
					"order" : 0,
					"source" : [ "obj-123", 0 ]
				}

			}
, 			{
				"patchline" : 				{
					"destination" : [ "obj-128", 3 ],
					"order" : 1,
					"source" : [ "obj-124", 0 ]
				}

			}
, 			{
				"patchline" : 				{
					"destination" : [ "obj-134", 3 ],
					"order" : 0,
					"source" : [ "obj-124", 0 ]
				}

			}
, 			{
				"patchline" : 				{
					"destination" : [ "obj-81", 0 ],
					"midpoints" : [ 32.5, 39.0, 1121.5, 39.0 ],
					"source" : [ "obj-126", 0 ]
				}

			}
, 			{
				"patchline" : 				{
					"destination" : [ "obj-145", 0 ],
					"source" : [ "obj-128", 0 ]
				}

			}
, 			{
				"patchline" : 				{
					"destination" : [ "obj-131", 0 ],
					"source" : [ "obj-129", 0 ]
				}

			}
, 			{
				"patchline" : 				{
					"destination" : [ "obj-17", 0 ],
					"source" : [ "obj-13", 0 ]
				}

			}
, 			{
				"patchline" : 				{
					"destination" : [ "obj-141", 0 ],
					"order" : 0,
					"source" : [ "obj-131", 0 ]
				}

			}
, 			{
				"patchline" : 				{
					"destination" : [ "obj-144", 0 ],
					"midpoints" : [ 365.5, 976.0, 320.5, 976.0 ],
					"order" : 1,
					"source" : [ "obj-131", 0 ]
				}

			}
, 			{
				"patchline" : 				{
					"destination" : [ "obj-142", 0 ],
					"order" : 0,
					"source" : [ "obj-132", 0 ]
				}

			}
, 			{
				"patchline" : 				{
					"destination" : [ "obj-143", 0 ],
					"midpoints" : [ 518.5, 975.0, 483.0, 975.0 ],
					"order" : 1,
					"source" : [ "obj-132", 0 ]
				}

			}
, 			{
				"patchline" : 				{
					"destination" : [ "obj-132", 0 ],
					"source" : [ "obj-133", 0 ]
				}

			}
, 			{
				"patchline" : 				{
					"destination" : [ "obj-146", 0 ],
					"source" : [ "obj-134", 0 ]
				}

			}
, 			{
				"patchline" : 				{
					"destination" : [ "obj-134", 4 ],
					"source" : [ "obj-135", 0 ]
				}

			}
, 			{
				"patchline" : 				{
					"destination" : [ "obj-128", 0 ],
					"midpoints" : [ 262.5, 838.0, 365.5, 838.0 ],
					"source" : [ "obj-140", 0 ]
				}

			}
, 			{
				"patchline" : 				{
					"destination" : [ "obj-134", 0 ],
					"midpoints" : [ 287.5, 833.0, 518.5, 833.0 ],
					"source" : [ "obj-140", 1 ]
				}

			}
, 			{
				"patchline" : 				{
					"destination" : [ "obj-140", 0 ],
					"midpoints" : [ 483.0, 1020.0, 236.0, 1020.0, 236.0, 788.0, 262.5, 788.0 ],
					"source" : [ "obj-143", 0 ]
				}

			}
, 			{
				"patchline" : 				{
					"destination" : [ "obj-140", 0 ],
					"midpoints" : [ 320.5, 1014.0, 246.0, 1014.0, 246.0, 793.0, 262.5, 793.0 ],
					"source" : [ "obj-144", 0 ]
				}

			}
, 			{
				"patchline" : 				{
					"destination" : [ "obj-129", 0 ],
					"source" : [ "obj-145", 0 ]
				}

			}
, 			{
				"patchline" : 				{
					"destination" : [ "obj-133", 0 ],
					"source" : [ "obj-146", 0 ]
				}

			}
, 			{
				"patchline" : 				{
					"destination" : [ "obj-140", 0 ],
					"midpoints" : [ 406.75, 772.0, 262.5, 772.0 ],
					"source" : [ "obj-147", 0 ]
				}

			}
, 			{
				"patchline" : 				{
					"color" : [ 0.92549, 0.364706, 0.341176, 0.9 ],
					"destination" : [ "obj-30", 0 ],
					"source" : [ "obj-148", 0 ]
				}

			}
, 			{
				"patchline" : 				{
					"color" : [ 0.92549, 0.364706, 0.341176, 0.9 ],
					"destination" : [ "obj-29", 0 ],
					"source" : [ "obj-149", 0 ]
				}

			}
, 			{
				"patchline" : 				{
					"destination" : [ "obj-62", 0 ],
					"source" : [ "obj-150", 0 ]
				}

			}
, 			{
				"patchline" : 				{
					"destination" : [ "obj-155", 0 ],
					"order" : 0,
					"source" : [ "obj-152", 0 ]
				}

			}
, 			{
				"patchline" : 				{
					"destination" : [ "obj-156", 0 ],
					"order" : 1,
					"source" : [ "obj-152", 0 ]
				}

			}
, 			{
				"patchline" : 				{
					"destination" : [ "obj-153", 0 ],
					"source" : [ "obj-155", 0 ]
				}

			}
, 			{
				"patchline" : 				{
					"destination" : [ "obj-154", 0 ],
					"source" : [ "obj-156", 0 ]
				}

			}
, 			{
				"patchline" : 				{
					"destination" : [ "obj-102", 1 ],
					"source" : [ "obj-159", 0 ]
				}

			}
, 			{
				"patchline" : 				{
					"destination" : [ "obj-18", 0 ],
					"order" : 1,
					"source" : [ "obj-16", 0 ]
				}

			}
, 			{
				"patchline" : 				{
					"destination" : [ "obj-86", 0 ],
					"order" : 0,
					"source" : [ "obj-16", 0 ]
				}

			}
, 			{
				"patchline" : 				{
					"destination" : [ "obj-151", 0 ],
					"source" : [ "obj-160", 0 ]
				}

			}
, 			{
				"patchline" : 				{
					"destination" : [ "obj-165", 0 ],
					"source" : [ "obj-164", 0 ]
				}

			}
, 			{
				"patchline" : 				{
					"destination" : [ "obj-163", 0 ],
					"source" : [ "obj-165", 0 ]
				}

			}
, 			{
				"patchline" : 				{
					"destination" : [ "obj-170", 0 ],
					"source" : [ "obj-169", 0 ]
				}

			}
, 			{
				"patchline" : 				{
					"destination" : [ "obj-19", 0 ],
					"order" : 1,
					"source" : [ "obj-17", 0 ]
				}

			}
, 			{
				"patchline" : 				{
					"destination" : [ "obj-87", 0 ],
					"order" : 0,
					"source" : [ "obj-17", 0 ]
				}

			}
, 			{
				"patchline" : 				{
					"destination" : [ "obj-168", 0 ],
					"source" : [ "obj-170", 0 ]
				}

			}
, 			{
				"patchline" : 				{
					"destination" : [ "obj-39", 0 ],
					"source" : [ "obj-20", 0 ]
				}

			}
, 			{
				"patchline" : 				{
					"destination" : [ "obj-16", 1 ],
					"midpoints" : [ 180.25, 424.0, 54.0, 424.0 ],
					"order" : 1,
					"source" : [ "obj-21", 0 ]
				}

			}
, 			{
				"patchline" : 				{
					"destination" : [ "obj-17", 0 ],
					"midpoints" : [ 180.25, 430.0, 131.0, 430.0 ],
					"order" : 0,
					"source" : [ "obj-21", 0 ]
				}

			}
, 			{
				"patchline" : 				{
					"destination" : [ "obj-24", 0 ],
					"source" : [ "obj-23", 0 ]
				}

			}
, 			{
				"patchline" : 				{
					"destination" : [ "obj-78", 0 ],
					"source" : [ "obj-24", 0 ]
				}

			}
, 			{
				"patchline" : 				{
					"destination" : [ "obj-26", 0 ],
					"source" : [ "obj-25", 0 ]
				}

			}
, 			{
				"patchline" : 				{
					"destination" : [ "obj-95", 0 ],
					"source" : [ "obj-28", 0 ]
				}

			}
, 			{
				"patchline" : 				{
					"destination" : [ "obj-33", 0 ],
					"source" : [ "obj-29", 0 ]
				}

			}
, 			{
				"patchline" : 				{
					"destination" : [ "obj-34", 0 ],
					"source" : [ "obj-30", 0 ]
				}

			}
, 			{
				"patchline" : 				{
					"destination" : [ "obj-6", 0 ],
					"source" : [ "obj-31", 0 ]
				}

			}
, 			{
				"patchline" : 				{
					"destination" : [ "obj-11", 0 ],
					"source" : [ "obj-32", 0 ]
				}

			}
, 			{
				"patchline" : 				{
					"color" : [ 0.952941, 0.564706, 0.098039, 0.9 ],
					"destination" : [ "obj-37", 1 ],
					"midpoints" : [ 262.5, 394.0, 315.5, 394.0 ],
					"order" : 1,
					"source" : [ "obj-33", 0 ]
				}

			}
, 			{
				"patchline" : 				{
					"color" : [ 0.960784, 0.827451, 0.156863, 0.9 ],
					"destination" : [ "obj-38", 1 ],
					"midpoints" : [ 262.5, 382.0, 408.5, 382.0 ],
					"order" : 0,
					"source" : [ "obj-33", 0 ]
				}

			}
, 			{
				"patchline" : 				{
					"color" : [ 0.952941, 0.564706, 0.098039, 0.9 ],
					"destination" : [ "obj-37", 1 ],
					"midpoints" : [ 355.5, 394.0, 315.5, 394.0 ],
					"order" : 1,
					"source" : [ "obj-34", 0 ]
				}

			}
, 			{
				"patchline" : 				{
					"color" : [ 0.960784, 0.827451, 0.156863, 0.9 ],
					"destination" : [ "obj-38", 1 ],
					"midpoints" : [ 355.5, 394.0, 408.5, 394.0 ],
					"order" : 0,
					"source" : [ "obj-34", 0 ]
				}

			}
, 			{
				"patchline" : 				{
					"destination" : [ "obj-37", 0 ],
					"source" : [ "obj-35", 0 ]
				}

			}
, 			{
				"patchline" : 				{
					"destination" : [ "obj-38", 0 ],
					"source" : [ "obj-36", 0 ]
				}

			}
, 			{
				"patchline" : 				{
					"destination" : [ "obj-40", 0 ],
					"source" : [ "obj-37", 0 ]
				}

			}
, 			{
				"patchline" : 				{
					"destination" : [ "obj-41", 0 ],
					"source" : [ "obj-38", 0 ]
				}

			}
, 			{
				"patchline" : 				{
					"destination" : [ "obj-51", 0 ],
					"source" : [ "obj-39", 0 ]
				}

			}
, 			{
				"patchline" : 				{
					"destination" : [ "obj-31", 0 ],
					"source" : [ "obj-4", 0 ]
				}

			}
, 			{
				"patchline" : 				{
					"destination" : [ "obj-43", 0 ],
					"midpoints" : [ 299.5, 514.0, 262.5, 514.0 ],
					"source" : [ "obj-40", 1 ]
				}

			}
, 			{
				"patchline" : 				{
					"destination" : [ "obj-42", 0 ],
					"midpoints" : [ 392.5, 512.0, 355.5, 512.0 ],
					"source" : [ "obj-41", 1 ]
				}

			}
, 			{
				"patchline" : 				{
					"destination" : [ "obj-44", 0 ],
					"source" : [ "obj-42", 0 ]
				}

			}
, 			{
				"patchline" : 				{
					"destination" : [ "obj-45", 0 ],
					"source" : [ "obj-43", 0 ]
				}

			}
, 			{
				"patchline" : 				{
					"color" : [ 0.92549, 0.364706, 0.341176, 0.9 ],
					"destination" : [ "obj-29", 0 ],
					"midpoints" : [ 366.0, 201.0, 262.5, 201.0 ],
					"source" : [ "obj-46", 0 ]
				}

			}
, 			{
				"patchline" : 				{
					"destination" : [ "obj-50", 0 ],
					"source" : [ "obj-49", 0 ]
				}

			}
, 			{
				"patchline" : 				{
					"destination" : [ "obj-32", 0 ],
					"source" : [ "obj-5", 0 ]
				}

			}
, 			{
				"patchline" : 				{
					"destination" : [ "obj-63", 0 ],
					"source" : [ "obj-51", 0 ]
				}

			}
, 			{
				"patchline" : 				{
					"destination" : [ "obj-49", 0 ],
					"source" : [ "obj-52", 0 ]
				}

			}
, 			{
				"patchline" : 				{
					"destination" : [ "obj-54", 0 ],
					"source" : [ "obj-53", 0 ]
				}

			}
, 			{
				"patchline" : 				{
					"destination" : [ "obj-55", 0 ],
					"source" : [ "obj-54", 0 ]
				}

			}
, 			{
				"patchline" : 				{
					"destination" : [ "obj-56", 0 ],
					"source" : [ "obj-54", 1 ]
				}

			}
, 			{
				"patchline" : 				{
					"destination" : [ "obj-61", 0 ],
					"source" : [ "obj-57", 0 ]
				}

			}
, 			{
				"patchline" : 				{
					"destination" : [ "obj-60", 0 ],
					"source" : [ "obj-58", 0 ]
				}

			}
, 			{
				"patchline" : 				{
					"destination" : [ "obj-7", 0 ],
					"source" : [ "obj-6", 0 ]
				}

			}
, 			{
				"patchline" : 				{
					"destination" : [ "obj-61", 0 ],
					"midpoints" : [ 569.5, 366.0, 636.0, 366.0, 636.0, 331.0, 655.5, 331.0 ],
					"source" : [ "obj-60", 0 ]
				}

			}
, 			{
				"patchline" : 				{
					"destination" : [ "obj-150", 0 ],
					"midpoints" : [ 655.5, 373.0, 569.5, 373.0 ],
					"source" : [ "obj-61", 0 ]
				}

			}
, 			{
				"patchline" : 				{
					"destination" : [ "obj-64", 0 ],
					"order" : 1,
					"source" : [ "obj-62", 0 ]
				}

			}
, 			{
				"patchline" : 				{
					"destination" : [ "obj-76", 0 ],
					"order" : 0,
					"source" : [ "obj-62", 0 ]
				}

			}
, 			{
				"patchline" : 				{
					"destination" : [ "obj-65", 0 ],
					"order" : 1,
					"source" : [ "obj-64", 0 ]
				}

			}
, 			{
				"patchline" : 				{
					"destination" : [ "obj-66", 0 ],
					"midpoints" : [ 569.5, 483.0, 622.5, 483.0 ],
					"order" : 0,
					"source" : [ "obj-64", 0 ]
				}

			}
, 			{
				"patchline" : 				{
					"destination" : [ "obj-67", 0 ],
					"source" : [ "obj-65", 0 ]
				}

			}
, 			{
				"patchline" : 				{
					"destination" : [ "obj-68", 0 ],
					"source" : [ "obj-66", 0 ]
				}

			}
, 			{
				"patchline" : 				{
					"destination" : [ "obj-69", 0 ],
					"source" : [ "obj-67", 0 ]
				}

			}
, 			{
				"patchline" : 				{
					"destination" : [ "obj-69", 1 ],
					"midpoints" : [ 622.5, 555.0, 606.5, 555.0 ],
					"source" : [ "obj-68", 0 ]
				}

			}
, 			{
				"patchline" : 				{
					"destination" : [ "obj-70", 0 ],
					"source" : [ "obj-69", 0 ]
				}

			}
, 			{
				"patchline" : 				{
					"destination" : [ "obj-8", 0 ],
					"source" : [ "obj-7", 0 ]
				}

			}
, 			{
				"patchline" : 				{
					"destination" : [ "obj-21", 0 ],
					"source" : [ "obj-72", 0 ]
				}

			}
, 			{
				"patchline" : 				{
					"destination" : [ "obj-77", 0 ],
					"source" : [ "obj-73", 0 ]
				}

			}
, 			{
				"patchline" : 				{
					"destination" : [ "obj-162", 0 ],
					"source" : [ "obj-74", 1 ]
				}

			}
, 			{
				"patchline" : 				{
					"color" : [ 0.701961, 0.415686, 0.886275, 0.9 ],
					"destination" : [ "obj-1", 0 ],
					"midpoints" : [ 943.5, 160.0, 1373.5, 160.0 ],
					"order" : 0,
					"source" : [ "obj-76", 0 ]
				}

			}
, 			{
				"patchline" : 				{
					"color" : [ 0.701961, 0.415686, 0.886275, 0.9 ],
					"destination" : [ "obj-74", 0 ],
					"order" : 1,
					"source" : [ "obj-76", 0 ]
				}

			}
, 			{
				"patchline" : 				{
					"destination" : [ "obj-20", 0 ],
					"source" : [ "obj-77", 0 ]
				}

			}
, 			{
				"patchline" : 				{
					"destination" : [ "obj-82", 0 ],
					"source" : [ "obj-78", 0 ]
				}

			}
, 			{
				"patchline" : 				{
					"color" : [ 0.372549, 0.196078, 0.486275, 0.9 ],
					"destination" : [ "obj-1", 0 ],
					"midpoints" : [ 1036.5, 170.0, 1373.5, 170.0 ],
					"order" : 0,
					"source" : [ "obj-79", 0 ]
				}

			}
, 			{
				"patchline" : 				{
					"color" : [ 0.372549, 0.196078, 0.486275, 0.9 ],
					"destination" : [ "obj-74", 0 ],
					"midpoints" : [ 1036.5, 171.0, 943.5, 171.0 ],
					"order" : 1,
					"source" : [ "obj-79", 0 ]
				}

			}
, 			{
				"patchline" : 				{
					"destination" : [ "obj-12", 0 ],
					"source" : [ "obj-8", 0 ]
				}

			}
, 			{
				"patchline" : 				{
					"destination" : [ "obj-79", 0 ],
					"source" : [ "obj-80", 0 ]
				}

			}
, 			{
				"patchline" : 				{
					"color" : [ 0.0, 0.0, 0.0, 0.9 ],
					"destination" : [ "obj-1", 0 ],
					"midpoints" : [ 1121.5, 182.0, 1373.5, 182.0 ],
					"order" : 1,
					"source" : [ "obj-81", 0 ]
				}

			}
, 			{
				"patchline" : 				{
					"color" : [ 0.0, 0.0, 0.0, 0.9 ],
					"destination" : [ "obj-74", 0 ],
					"midpoints" : [ 1121.5, 182.0, 943.5, 182.0 ],
					"order" : 2,
					"source" : [ "obj-81", 0 ]
				}

			}
, 			{
				"patchline" : 				{
					"color" : [ 0.0, 0.0, 0.0, 0.9 ],
					"destination" : [ "obj-93", 0 ],
					"midpoints" : [ 1121.5, 145.0, 1396.5, 145.0 ],
					"order" : 0,
					"source" : [ "obj-81", 0 ]
				}

			}
, 			{
				"patchline" : 				{
					"destination" : [ "obj-25", 0 ],
					"source" : [ "obj-82", 0 ]
				}

			}
, 			{
				"patchline" : 				{
					"destination" : [ "obj-13", 0 ],
					"source" : [ "obj-9", 0 ]
				}

			}
, 			{
				"patchline" : 				{
					"destination" : [ "obj-120", 0 ],
					"source" : [ "obj-90", 0 ]
				}

			}
, 			{
				"patchline" : 				{
					"destination" : [ "obj-135", 0 ],
					"source" : [ "obj-91", 0 ]
				}

			}
, 			{
				"patchline" : 				{
					"destination" : [ "obj-96", 0 ],
					"source" : [ "obj-92", 0 ]
				}

			}
, 			{
				"patchline" : 				{
					"destination" : [ "obj-29", 0 ],
					"source" : [ "obj-95", 0 ]
				}

			}
, 			{
				"patchline" : 				{
					"destination" : [ "obj-30", 0 ],
					"midpoints" : [ 297.5, 209.0, 355.5, 209.0 ],
					"source" : [ "obj-95", 1 ]
				}

			}
, 			{
				"patchline" : 				{
					"destination" : [ "obj-101", 0 ],
					"source" : [ "obj-96", 0 ]
				}

			}
 ],
		"dependency_cache" : [  ],
		"autosave" : 0
	}

}
